Music_GalarBirdBattle::
	channel_count 3
	channel 1, Music_GalarBirdBattle_Ch1
	channel 2, Music_GalarBirdBattle_Ch2
	channel 3, Music_GalarBirdBattle_Ch3

Music_GalarBirdBattle_Ch1::
	tempo 111
	volume 7, 7
	duty_cycle 3
	vibrato 6, 3, 4
	toggle_perfect_pitch
Music_GalarBirdBattle_branch_22962::
	note_type 12, 11, 2
	octave 4
	note A#, 6
	note A_, 6
	note F_, 4
	note G#, 6
	note G_, 6
	note D#, 4
	note F_, 6
	octave 3
	note B_, 4
	octave 4
	note F_, 4
	octave 3
	note B_, 2
	octave 4
	note B_, 6
	note F_, 4
	note B_, 4
	note F_, 2
	

	note_type 12, 11, 5
	note A#, 8
	octave 4
	note F_, 8
	note E_, 16
	octave 3
	note A#, 2
	octave 4
	note C#, 1
	note C_, 1
	note C#, 2
	note F_, 1
	note E_, 1
	note F_, 2
	note A#, 4
	note F#, 8
	rest 4
	octave 3
	note F_, 1
	note E_, 1
	note F_, 2
	note A#, 1
	note A_, 1
	note A#, 2
	octave 4
	note C#, 1
	note C_, 1
	note C#, 2
	note F_, 1
	note E_, 1
	note F_, 2
	note A#, 4
	note E_, 8
	rest 4
	octave 3
	note F_, 1
	note E_, 1
	note F_, 2
	note A#, 1
	note A_, 1
	note A#, 2
	octave 4
	note C#, 1
	note C_, 1
	note C#, 2
	note F_, 1
	note E_, 1
	note F_, 2
	note A#, 4
	note F#, 6
	note_type 12, 11, 2
	octave 3
	note F#, 1
	note A#, 1
	octave 4
	note C#, 1
	note F#, 1
	note A#, 1
	note F#, 1
	note C#, 1
	octave 3
	note A#, 1
	note F#, 1
	note C#, 1
	octave 2
	note A#, 1
	note F#, 1
	note_type 12, 11, 5
	octave 4
	note F_, 6
	octave 3
	note F_, 1
	note D#, 1
	note F_, 1
	note A#, 1
	octave 4
	note D#, 1
	note F_, 3
	note D#, 1
	note F_, 1
	note D#, 4
	note F_, 4
	note F#, 6
	note G#, 1
	note F#, 1
	note F_, 6
	octave 5
	note F_, 1
	note D#, 1
	note F_, 8
	rest 4
	octave 3
	note A#, 1
	note F#, 1
	note C#, 1
	octave 2
	note A#, 1
	rest 10
	octave 4
	note F_, 1
	note D#, 1
	note F_, 1
	note C#, 1
	note F_, 1
	note C_, 1
	octave 3
	note A#, 2
	octave 4
	note E_, 1
	note F_, 3
	note D#, 1
	note F_, 1
	note D#, 4
	note F_, 4
	note F#, 6
	note G#, 1
	note F#, 1
	note F_, 6
	note E_, 1
	note F_, 1
	note A#, 6
	note F_, 1
	note E_, 1
	note F_, 2
	note F#, 4
	note F#, 2
	note F#, 2
	note F#, 2
	note F#, 1
	note F#, 1
	note F#, 1
	note F#, 1
	rest 4
	octave 2
	note B_, 1
	octave 3
	note E_, 1
	note A_, 1
	octave 4
	note D_, 1
	note G_, 2
	rest 2
	note C_, 1
	octave 3
	note G_, 1
	note D_, 1
	octave 2
	note A_, 1
	rest 4
	octave 4
	note D#, 1
	octave 3
	note A#, 1
	note F_, 1
	note C_, 1
	octave 4
	note D_, 1
	octave 3
	note A_, 1
	note E_, 1
	octave 2
	note B_, 1
	rest 4
	note A#, 4
	note A#, 4
	note A#, 4
	octave 4
	note F#, 1
	note C#, 1
	octave 3
	note G#, 1
	note D#, 1
	rest 4
	octave 4
	note E_, 1
	octave 3
	note B_, 1
	note F#, 1
	note C#, 1
	rest 4
	octave 4
	note D#, 1
	note C#, 1
	note C_, 1
	octave 3
	note B_, 1
	octave 4
	note C#, 16
	rest 8
	octave 3
	note F_, 16
	note E_, 16
	note G#, 8
	note G_, 8
	tempo 74
	note F#, 6
	note F_, 6
	note E_, 6
	octave 4
	note G#, 2
	note A#, 4
	tempo 111
	note A#, 4
	note F_, 12
	note E_, 8
	note F_, 4
	note E_, 2
	note F_, 6
	note F#, 4
	note G_, 4
	note G#, 2
	note A_, 4
	note A#, 6
	tempo 74
	note B_, 2
	note F#, 2
	note C#, 2
	octave 3
	note G#, 2
	note D#, 2
	octave 2
	note A#, 2
	octave 5
	note F#, 2
	note C#, 2
	octave 4
	note G#, 2
	octave 4
	vibrato 6, 2, 4
	note F_, 3
	note G#, 3
	tempo 111
	inc_octave
	note C_, 1
	dec_octave
	note A#, 1
	inc_octave
	note C_, 2
	note D#, 8
	dec_octave
	note F_, 2
	note G#, 2
	inc_octave
	note C_, 1
	dec_octave
	note A#, 1
	inc_octave
	note C_, 2
	note G_, 8
	rest 4
	note C_, 1
	dec_octave
	note A#, 1
	inc_octave
	note C_, 2
	note A#, 4
	note G#, 4
	note D#, 4
	note C_, 1
	dec_octave
	note A#, 1
	inc_octave
	note C_, 6
	note D#, 4
	dec_octave
	note G#, 2
	inc_octave
	note C_, 2
	note D#, 1
	note C#, 1
	note D#, 2
	note F#, 8
	dec_octave
	note G#, 2
	inc_octave
	note C_, 2
	note D#, 1
	note C#, 1
	note D#, 2
	dec_octave
	note F#, 10
	note B_, 1
	inc_octave
	note C#, 1
	note D#, 4
	note C#, 4
	dec_octave
	note B_, 4
	inc_octave
	note F#, 4
	note D#, 1
	note C#, 1
	note D#, 10
	dec_octave
	note B_, 2
	inc_octave
	note D_, 2
	note F#, 1
	note E_, 1
	note F#, 2
	note A_, 8
	dec_octave
	note B_, 2
	inc_octave
	note D_, 2
	note F#, 1
	note E_, 1
	note F#, 2
	inc_octave
	note C#, 8
	dec_octave
	note D_, 2
	note E_, 2
	note F#, 1
	note E_, 1
	note F#, 2
	inc_octave
	note E_, 4
	note D_, 4
	dec_octave
	note A_, 4
	inc_octave
	note C#, 4
	dec_octave
	note B_, 8
	dec_octave
	note B_, 2
	inc_octave
	note D_, 2
	note A_, 6
	note G_, 2
	rest 2
	inc_octave
	note C_, 2
	rest 2
	dec_octave
	note F_, 2
	note A_, 6
	note G_, 2
	rest 2
	inc_octave
	note C_, 2
	rest 2
	dec_octave
	note F_, 2
	note A_, 6
	note G_, 2
	rest 2
	inc_octave
	note C_, 2
	rest 2
	dec_octave
	note G_, 2
	note A_, 2
	rest 14
	rest 16
	vibrato 6, 3, 4
	octave 5
	note E_, 3
	rest 3
	note D_, 6
	rest 4
	rest 16
	note A_, 3
	rest 3
	note G#, 6
	note_type 12, 7, 5
	octave 3
	note B_, 1
	octave 4
	note D_, 1
	octave 3
	note B_, 1
	note A_, 1
	note B_, 2
	note B_, 2
	octave 4
	note D_, 4
	rest 8
	note_type 12, 11, 5
	octave 5
	note E_, 3
	rest 3
	note D_, 6
	rest 4
	octave 3
	note A#, 2
	note B_, 2
	octave 4
	note F#, 2
	octave 3
	note E_, 1
	note F_, 1
	note B_, 2
	octave 4
	note F#, 2
	octave 3
	note B_, 2
	octave 4
	note F#, 2
	note A#, 2
	rest 2
	note A#, 2
	rest 4
	note A#, 6
	octave 4
	note F#, 6
	octave 3
	note F#, 1
	note E_, 1
	note F#, 1
	note B_, 1
	octave 4
	note E_, 1
	note F#, 3
	note E_, 1
	note F#, 1
	note E_, 4
	note F#, 4
	note G_, 6
	note F#, 1
	note E_, 1
	note F#, 6
	rest 8
	note_type 12, 6, 5
	octave 3
	note F#, 1
	note E_, 1
	note F#, 8
	rest 8
	rest 2
	note_type 12, 11, 5
	octave 4
	note F#, 1
	note E_, 1
	note F#, 1
	note D_, 1
	note F#, 1
	note C#, 1
	note D_, 2
	note F#, 4
	note E_, 1
	note F#, 1
	note E_, 4
	note F#, 4
	note G_, 6
	note A_, 1
	note G_, 1
	note F#, 6
	note F_, 1
	note F#, 1
	note B_, 8
	note E_, 5
	note D#, 1
	note D_, 4
	octave 3
	note B_, 4
	octave 4
	note D_, 2
	note F_, 6
	rest 2
	octave 3
	note F_, 2
	octave 4
	note F_, 4
	note D#, 1
	note F_, 1
	note D#, 4
	note F_, 4
	note F#, 6
	note F_, 1
	note D#, 1
	note F_, 6
	octave 3
	note F_, 1
	note D#, 1
	note F_, 8
	rest 2
	note_type 12, 7, 5
	note F_, 1
	note D#, 1
	note F_, 1
	note C#, 1
	note F_, 1
	note C_, 1
	octave 2
	note A#, 2
	rest 6
	rest 2
	note_type 12, 11, 5
	octave 4
	note F_, 1
	note D#, 1
	note F_, 1
	note C#, 1
	note F_, 1
	note C_, 1
	octave 3
	note A#, 2
	octave 4
	note E_, 1
	note F_, 3
	note D#, 1
	note F_, 1
	note D#, 4
	note F_, 4
	note F#, 6
	note G#, 1
	note F#, 1
	note F_, 6
	note E_, 1
	note F_, 1
	note A#, 8
	note E_, 6
	rest 2
	note E_, 2
	note E_, 2
	note E_, 2
	note E_, 2
	note D#, 8
	note G_, 8
	note F#, 6
	note D_, 2
	note D#, 8
	note F_, 8
	note C#, 8
	note E_, 8
	note C_, 8
	note G_, 8
	note B_, 8
	note A#, 6
	note F#, 2
	note G_, 8
	note A_, 8
	note F_, 8
	note G#, 8
	note E_, 8
	note D#, 8
	note G_, 8
	note F#, 6
	note D_, 2
	note D#, 8
	note F_, 8
	note C#, 8
	note E_, 8
	note C_, 8
	note D#, 8
	note G_, 8
	note F#, 6
	note D_, 2
	note D#, 8
	note F_, 8
	note C#, 8
	tempo 74
	note C#, 3
	note F#, 3
	note B_, 3
	octave 5
	note E_, 3
	octave 4
	note D_, 2
	note G_, 2
	octave 5
	note C_, 2
	octave 3
	note F_, 2
	note A#, 2
	octave 4
	note D#, 2
	tempo 111
	;loop
	sound_loop 0, Music_GalarBirdBattle_branch_22962


Music_GalarBirdBattle_Ch2::
	duty_cycle 3
	vibrato 10, 2, 5
Music_GalarBirdBattle_branch_22bfc::
	note_type 12, 10, 6
	octave 3
	note C#, 6
	note C_, 6
	octave 2
	note G#, 4
	note B_, 6
	note A#, 6
	note F#, 4
	octave 3
	note C_, 6
	octave 2
	note G#, 4
	octave 3
	note C_, 4
	octave 2
	note G#, 2
	octave 3
	note F_, 6
	note D_, 4
	note F_, 4
	note D_, 2
	note C#, 8
	octave 4
	note C#, 8
	octave 3
	note G#, 16
	rest 10
	octave 4
	note C#, 4
	octave 3
	note A#, 4
	octave 2
	note A#, 1
	note A_, 1
	note A#, 2
	octave 3
	note C#, 1
	note C_, 1
	note C#, 2
	rest 14
	note A#, 2
	octave 4
	note C#, 4
	octave 3
	note F#, 4
	octave 2
	note A#, 1
	note A_, 1
	note A#, 2
	octave 3
	note C#, 1
	note C_, 1
	note C#, 2
	rest 14
	note A#, 2
	octave 4
	note C#, 4
	octave 3
	note A#, 6
	note_type 12, 10, 2
	note C#, 1
	note F#, 1
	note A#, 1
	octave 4
	note C#, 1
	note F#, 1
	note C#, 1
	octave 3
	note A#, 1
	note F#, 1
	note C#, 1
	octave 2
	note A#, 1
	note F#, 1
	note C#, 1
	note_type 12, 10, 6
	octave 4
	note C#, 6
	rest 4
	octave 3
	note A#, 6
	note A#, 4
	octave 4
	note C_, 4
	note C#, 8
	octave 3
	note A#, 6
	octave 4
	note A#, 1
	note A#, 1
	note A#, 8
	octave 3
	note F#, 1
	note C#, 1
	octave 2
	note A#, 1
	note F#, 1
	rest 4
	octave 4
	note C#, 1
	octave 3
	note A#, 1
	note F#, 1
	note C#, 1
	note F#, 1
	note A#, 1
	octave 4
	note C#, 1
	note F#, 1
	octave 3
	note A#, 2
	rest 8
	note A#, 6
	note A#, 4
	octave 4
	note C_, 4
	note C#, 8
	octave 3
	note A#, 8
	octave 4
	note C#, 8
	rest 2
	note C#, 4
	note C#, 2
	note C#, 2
	note C#, 2
	note C#, 1
	note C#, 1
	note C#, 1
	note C#, 1
	octave 1
	note F_, 2
	note F_, 2
	rest 4
	note F_, 2
	note F_, 2
	rest 4
	note F_, 2
	note F_, 2
	rest 4
	note F_, 2
	note F_, 2
	rest 4
	octave 3
	note F_, 4
	note F_, 4
	note F_, 4
	rest 4
	octave 1
	note F_, 2
	note F_, 2
	rest 4
	note F#, 2
	note F#, 2
	rest 4
	octave 2
	note A#, 2
	note G#, 2
	octave 1
	note A#, 4
	octave 2
	note G#, 2
	octave 1
	note A#, 2
	octave 2
	note G#, 2
	octave 1
	note A#, 2
	octave 2
	note G#, 2
	octave 1
	note A#, 2
	note A#, 2
	note A#, 2
	octave 2
	note D#, 2
	note C#, 2
	note G#, 2
	note A#, 2
	octave 1
	note A#, 2
	note A#, 2
	rest 2
	octave 2
	note G#, 1
	note A#, 1
	note F_, 4
	note E_, 4
	octave 1
	note F_, 2
	note F_, 2
	rest 2
	octave 2
	note F_, 1
	note F#, 1
	note F_, 6
	octave 1
	note B_, 1
	octave 2
	note C_, 1
	note C#, 2
	note C#, 2
	rest 4
	octave 1
	;tempo 74
	note F_, 2
	note F_, 2
	note F#, 2
	octave 2
	note C#, 2
	note F#, 2
	note G#, 2
	octave 1
	note B_, 2
	octave 2
	note C#, 2
	note E_, 2
	note G#, 2
	note A#, 4
	;tempo 111
	note A#, 3
	note A#, 3
	note G#, 1
	note A#, 1
	note A#, 3
	note A#, 3
	note G#, 1
	note A#, 1
	note E_, 2
	note D#, 1
	note E_, 1
	note G#, 3
	note A#, 1
	rest 2
	octave 1
	note A#, 2
	note F_, 2
	note D#, 2
	note E_, 2
	note E_, 1
	note G#, 3
	octave 2
	note E_, 4
	octave 1
	note E_, 2
	note G#, 2
	note F_, 2
	note F#, 2
	note G_, 1
	octave 2
	note D_, 3
	note G#, 2
	;tempo 74
	octave 1
	note A_, 3
	octave 2
	note A_, 3
	octave 1
	note A#, 3
	octave 2
	note A#, 3
	octave 1
	note B_, 3
	octave 2
	note B_, 3
	octave 1
	note C_, 3
	octave 2
	note C_, 3
	;tempo 111
	octave 1
	note C#, 2
	note G#, 2
	octave 2
	note C#, 2
	octave 1
	note G#, 2
	octave 2
	note C#, 2
	note F_, 2
	note C#, 2
	octave 1
	note G#, 2
	note D#, 2
	note A#, 2
	octave 2
	note D#, 2
	octave 1
	note A#, 2
	octave 2
	note D#, 2
	note G_, 2
	note D#, 2
	note A#, 2
	octave 1
	note G#, 2
	octave 2
	note D#, 2
	note G#, 2
	note C_, 2
	note G#, 2
	note D#, 2
	octave 1
	note G#,2
	note D#, 2
	note G#, 2
	octave 3
	note D#, 2
	octave 2
	note G#, 2
	octave 3
	note C#, 2
	octave 2
	note G#, 2
	octave 3
	note C_, 2
	octave 1
	note G#, 2
	note B_, 2
	note E_, 2
	note B_, 2
	octave 2
	note E_, 2
	note B_, 2
	octave 3
	note E_, 2
	note D#, 2
	note C#, 2
	note C_, 2
	octave 1
	note F#, 2
	octave 2
	note C#, 2
	note F#, 2
	note B_, 2
	note F#, 2
	note A#, 2
	note F#, 2
	note G#, 2
	octave 1
	note B_, 2
	note E_, 2
	note B_, 2
	octave 2
	note F#, 2
	octave 1
	note B_, 2
	octave 2
	note D#, 2
	octave 1
	note B_, 2
	octave 2
	note C#, 2
	octave 1
	note B_, 2
	octave 2
	note B_, 2
	octave 1
	note B_, 2
	octave 2
	note A#, 2
	octave 1
	note B_, 2
	octave 2
	note G#, 2
	octave 1
	note B_, 2
	octave 2
	note F#, 2
	octave 1
	note G_, 2
	octave 2
	note D_, 2
	note G_, 2
	note D_, 2
	octave 1
	note G_, 2
	octave 2
	note D_, 2
	note G_, 2
	note D_, 2
	octave 1
	note A_, 2
	octave 2
	note E_, 2
	note A_, 2
	note E_, 2
	octave 1
	note A_, 2
	octave 2
	note E_, 2
	note A_, 2
	note E_, 2
	octave 1
	note D_, 2
	note A_, 2
	octave 2
	note D_, 2
	octave 1
	note A_, 2
	note F#, 2
	note A_, 2
	octave 2
	note D_, 2
	note F#, 2
	octave 1
	note D_, 2
	octave 2
	note E_, 2
	note D_, 2
	octave 1
	note D_, 2
	octave 2
	note D_, 2
	note C#, 2
	note D_, 2
	note C_, 2
	octave 1
	note A#, 6
	octave 2
	note C_, 2
	note D_, 2
	note F_, 2
	rest 2
	octave 1
	note A#, 2
	octave 2
	note C_, 6
	note A#, 4
	note A_, 4
	note G_, 2
	note A_, 6
	note G_, 4
	note F_, 4
	note E_, 2
	note_type 12, 10, 2
	note A_, 1
	note F_, 1
	note E_, 1
	note C#, 1
	octave 1
	note A_, 1
	octave 2
	note C#, 1
	note E_, 1
	note F_, 1
	note A_, 1
	octave 3
	note C#, 1
	note E_, 1
	note G#, 1
	note A_, 2
	note_type 12, 10, 6
	rest 2
	rest 16
	octave 4
	note B_, 3
	rest 3
	note A_, 6
	rest 4
	rest 16 
	octave 5
	note E_, 3
	rest 3
	note D_, 6
	rest 8
	octave 3
	note B_, 4
	rest 8
	octave 4
	note B_, 3
	rest 3
	note A_, 6
	rest 4
	octave 3
	note F#, 2
	note F#, 2
	note B_, 2
	rest 2
	note F#, 2
	octave 4
	note D_, 2
	octave 3
	note F#, 2
	octave 4
	note D_, 2
	note F#, 2
	octave 3
	note A#, 2
	octave 4
	note F#, 2
	octave 3
	note A#, 2
	rest 2
	octave 4
	note E_, 4
	note C#, 2
	note D_, 6
	rest 4
	octave 3
	note B_, 6
	note B_, 4
	octave 4
	note C#, 4
	note D_, 8
	octave 3
	note B_, 6
	note F#, 1
	note E_, 1
	note F#, 8
	rest 6
	note_type 12, 5, 6
	octave 2
	note F#, 1
	note E_, 1
	note F#, 4
	note C#, 4
	note B_, 2
	note_type 12, 10, 6	
	rest 8
	octave 3
	note B_, 6
	note B_, 4
	octave 4
	note C#, 4
	note D_, 8
	octave 3
	note B_, 8
	octave 4
	note D_, 8
	octave 3
	note A_, 6
	note G#, 4
	note F#, 4
	note B_, 1
	note A_, 1
	octave 4
	note C#, 6
	rest 2
	octave 3
	note C_, 2
	note G#, 4
	note A_, 1
	note A_, 1
	note F#, 4
	note G#, 4
	note A#, 6
	note A#, 1
	note A#, 1
	octave 4
	note C_, 6
	octave 3
	note C#, 1
	note C#, 1
	note C#, 8
	rest 2
	note_type 12, 7, 6
	rest 8
	octave 4
	note C_, 1
	octave 3
	note A#, 1
	octave 4
	note C_, 1
	octave 3
	note G#, 1
	octave 4
	note C_, 1
	octave 3
	note F#, 1
	note F_, 2
	rest 8
	note_type 12, 10, 6
	note A#, 4
	note A_, 1
	note A_, 1
	note A#, 4
	octave 4
	note C_, 4
	note C#, 8
	octave 3
	note A#, 8
	octave 4
	note C#, 8
	octave 3
	note F#, 6
	rest 2
	note F#, 2
	note F#, 2
	note F#, 2
	note F#, 2
	note G_, 8
	note B_, 8
	note A#, 6
	note F#, 2
	note G_, 8
	note A_, 8
	note F_, 8
	note G#, 8
	note E_, 8
	octave 4
	note D#, 8
	note G_, 8
	note F#, 6
	note D_, 2
	note D#, 8
	note F_, 8
	note C#, 8
	note E_, 8
	note C_, 8
	octave 3
	note B_, 8
	octave 4
	note D#, 8
	note D_, 6
	octave 3
	note A#, 2
	note B_, 8
	octave 4
	note C#, 8
	octave 3
	note A#, 8
	note B_, 8
	note G#, 8
	octave 4
	note D#, 8
	note G_, 8
	note F#, 6
	note D_, 2
	note D#, 8
	note F_, 8
	note C#, 8
	;tempo 74
	rest 1
	note C#, 3
	note F#, 3
	note B_, 3
	octave 5
	note E_, 3
	octave 4
	note D_, 2
	note G_, 2
	octave 5
	note C_, 2
	octave 3
	note F_, 2
	note A#, 2
	octave 4
	note D#, 1
	;tempo 111
	;loop
	sound_loop 0, Music_GalarBirdBattle_branch_22bfc


Music_GalarBirdBattle_Ch3::
	vibrato 0, 2, 0
	note_type 12, 1, 4
Music_GalarBirdBattle_branch_22d9c::
	octave 2
	note A#, 6
	note A_, 6
	note G#, 2
	note G_, 1
	note F#, 1
	note F_, 6
	note E_, 6
	note D#, 2
	note D#, 1
	note E_, 1
	note F_, 4
	note F_, 1
	note F_, 1
	note F_, 4
	note F_, 4
	note F_, 2
	octave 1
	note B_, 4
	note B_, 1
	note B_, 1
	note B_, 4
	note B_, 4
	note B_, 2 
	note A#, 2
	octave 2
	note F_, 2
	octave 1
	note A#, 2
	octave 2
	note F_, 2
	octave 1
	note A#, 2
	octave 2
	note F#, 2
	note G#, 2
	note F#, 2
	octave 1
	note A#, 2
	octave 2
	note F_, 2
	octave 1
	note A#, 2
	octave 2
	note F#, 2
	octave 1
	note A#, 2
	octave 2
	note F#, 2
	note G#, 2
	note F#, 2
	octave 1
	note A#, 2
	octave 2
	note F_, 2
	octave 1
	note A#, 2
	octave 2
	note F_, 2
	octave 1
	note A#, 2
	octave 2
	note F_, 2
	octave 1
	note A#, 2
	octave 2
	note F#, 2
	octave 1
	note A#, 2
	octave 2
	note F#, 2
	octave 1
	note A#, 2
	octave 2
	note F#, 2
	octave 1
	note A#, 2
	octave 2
	note F#, 2
	octave 1
	note A#, 2
	octave 2
	note C#, 2
	octave 1
	note A#, 2
	octave 2
	note F_, 2
	octave 1
	note A#, 2
	octave 2
	note F_, 2
	octave 1
	note A#, 2
	octave 2
	note F_, 2
	octave 1
	note A#, 2
	octave 2
	note F#, 2
	octave 1
	note A#, 2
	octave 2
	note F#, 2
	octave 1
	note A#, 2
	octave 2
	note F#, 2
	octave 1
	note A#, 2
	octave 2
	note F#, 2
	octave 1
	note A#, 2
	octave 2
	note C#, 2
	octave 1
	note A#, 2
	octave 2
	note F_, 2
	octave 1
	note A#, 2
	octave 2
	note F_, 2
	octave 1
	note A#, 2
	octave 2
	note F_, 2
	octave 1
	note A#, 2
	octave 2
	note F#, 2
	octave 1
	note A#, 2
	octave 2
	note F#, 2
	octave 1
	note A#, 2
	octave 2
	note F#, 2
	octave 1
	note A#, 2
	octave 2
	note F#, 2
	octave 1
	note A#, 2
	octave 2
	note C#, 2
	note F_, 2
	note A#, 2
	note F_, 2
	note A#, 2
	note F_, 2
	note A#, 2
	note F_, 2
	note A#, 2
	note F#, 2
	octave 3
	note C#, 2
	octave 2
	note F#, 2
	octave 3
	note C#, 2
	octave 2
	note A#, 2
	octave 3
	note C#, 2
	octave 2
	note F#, 2
	octave 3
	note C#, 2
	note F_, 2
	note A#, 2
	note F_, 2
	note A#, 2
	note F_, 2
	note A#, 2
	note F_, 2
	note A#, 2
	note F#, 2
	octave 3
	note C#, 2
	octave 2
	note F#, 2
	octave 3
	note C#, 2
	octave 2
	note A#, 2
	octave 3
	note C#, 2
	octave 2
	note G#, 2
	octave 3
	note C#, 2
	note F_, 2
	note A#, 2
	note F_, 2
	note A#, 2
	note F_, 2
	note A#, 2
	note F_, 2
	note A#, 2
	note F#, 2
	octave 3
	note C#, 2
	octave 2
	note F#, 2
	octave 3
	note C#, 2
	octave 2
	note A#, 2
	octave 3
	note C#, 2
	octave 2
	note F#, 2
	octave 3
	note C#, 2
	note F_, 2
	note A#, 2
	note F_, 2
	note A#, 2
	note F_, 2
	note A#, 2
	note F_, 2
	note A#, 2
	note F#, 2
	octave 3
	note C#, 2
	octave 2
	note F#, 2
	octave 3
	note C#, 2
	octave 2
	note A#, 2
	octave 3
	note C#, 2
	octave 2
	note G#, 2
	octave 3
	note C#, 2
	octave 1
	note A#, 2
	note A#, 2
	rest 4
	note A#, 2
	note A#, 2
	rest 4
	note A#, 2
	note A#, 2
	rest 4
	note A#, 2
	note A#, 2
	note A#, 2
	octave 2
	note D#, 2
	octave 1
	note A#, 2
	octave 2
	note D#, 2
	octave 1
	note A#, 2
	octave 2
	note D#, 2
	octave 1
	note A#, 2
	octave 2
	note D#, 2
	octave 1
	rest 4
	note A#, 2
	note A#, 2
	rest 4
	note A#, 2
	note A#, 2
	rest 4
	octave 3
	note F_, 16
	rest 8
	note C#, 16
	note C#, 16
	note D_, 8
	note C#, 8
	;tempo 74
	note C#, 6
	note C#, 6
	note C#, 6
	octave 4
	note C#, 6
	;tempo 111
	note C#, 4
	note C#, 12
	note C#, 8
	note C#, 4
	note C_, 2
	note C#, 6
	note D_, 4
	note D#, 4
	note E_, 2
	note F_, 4
	note F#, 6
	;tempo 74
	note G_, 2
	note_type, 12, 1, 11
	rest 10
	note B_, 2
	note F#, 2
	note C#, 2
	octave 4
	note D#, 3
	note C#, 3
	;tempo 111
	note C#, 4
	note F_, 8
	note C#, 2
	note F_, 2
	note D#, 4
	note A#, 8
	note G_, 4
	note D#, 4
	inc_octave
	note C_, 4
	note C_, 4
	dec_octave
	note G#, 4
	inc_octave
	note G_, 4
	note F_, 8
	dec_octave
	note D#, 2
	note G#, 2
	note E_, 4
	note G#, 8
	note E_, 2
	note G#, 2
	note F#, 4
	dec_octave
	note A#, 8
	rest 2
	inc_octave
	note D#, 1
	note E_, 1
	note F#, 4
	note E_, 4
	note D#, 4
	note B_, 4
	note F#, 12
	note F#, 2
	note A_, 2
	note B_, 4
	inc_octave
	note D_, 8
	dec_octave
	note F#, 2
	note A_, 2
	note B_, 4
	inc_octave
	note F#, 8
	dec_octave
	note A_, 2
	note B_, 2
	note A_, 4
	inc_octave
	note A_, 4
	note F#, 4
	note D_, 4
	note F#, 4
	note D_, 4
	rest 4
	dec_octave
	dec_octave
	note B_, 2
	inc_octave
	note D_, 2
	inc_octave
	note D_, 6
	dec_octave
	note G_, 2
	rest 2
	inc_octave
	note C_, 2
	rest 2
	dec_octave
	note F_, 2
	inc_octave
	note E_, 6
	dec_octave
	note G_, 2
	rest 2
	inc_octave
	note C_, 2
	rest 2
	dec_octave
	note F_, 2
	inc_octave
	note D_, 6
	note D_, 2
	rest 2
	note G_, 2
	rest 2
	note D_, 2
	note C#, 2
	note_type 12, 1, 4
	rest 14 
	octave 3
	note B_, 2
	note B_, 2
	octave 4
	note D_, 2
	octave 3
	note A_, 1
	note A#, 1
	note B_, 2
	octave 4
	note D_, 2
	octave 3
	note A_, 2
	note B_, 2
	octave 4
	note E_, 2
	octave 3
	note A_, 2
	note B_, 2
	octave 4
	note D_, 4
	octave 3
	note G_, 1
	note G#, 1
	note A_, 2
	note A#, 2
	note B_, 2
	note B_, 2
	octave 4
	note D_, 2
	octave 3
	note A_, 1
	note A#, 1
	note B_, 2
	octave 4
	note D_, 2
	octave 3
	note A_, 2
	note B_, 2
	octave 4
	note E_, 2
	octave 3
	note A_, 2
	note B_, 2
	octave 4
	note D_, 4
	octave 3
	note G#, 1
	note G#, 1
	note E_, 2
	note F_, 2
	note F#, 2
	note F#, 2
	note F#, 2
	note A_, 1
	note A#, 1
	note B_, 2
	octave 4
	note D_, 2
	octave 3
	note A_, 2
	note B_, 2
	octave 4
	note E_, 2
	octave 3
	note A_, 2
	note B_, 2
	octave 4
	note D_, 4
	octave 3
	note G_, 1
	note G#, 1
	note A_, 2
	note A#, 2
	octave 2
	note A#, 2
	note A#, 2
	note A#, 2
	note D_, 2
	note E_, 2
	note F#, 2
	note A_, 2
	note A#, 2
	octave 3
	note C#, 2
	note F#, 2
	note C#, 2
	octave 2
	note F#, 2
	rest 2
	note F#, 2
	note A#, 2
	octave 3
	note C#, 2
	octave 1
	note B_, 2
	octave 2
	note F#, 1
	note A_, 1
	note B_, 2
	note F#, 2
	octave 1
	note B_, 2
	octave 2
	note G#, 2
	note D_, 2
	note A#, 2
	note B_, 2
	note A_, 2
	note B_, 2
	octave 1
	note B_, 4
	octave 2
	note B_, 2
	note A_, 2
	note B_, 2
	octave 1
	note B_, 2
	octave 2
	note A_, 2
	note B_, 2
	note F#, 2
	octave 1
	note B_, 2
	octave 2
	note G#, 2
	note D_, 2
	note A#, 2
	note A_, 2
	octave 1
	note A_, 2
	note B_, 2
	octave 2
	note F#, 2
	octave 1
	note E_, 2
	octave 2
	note E_, 1
	note D_, 1
	note E_, 1
	octave 1
	note A#, 1
	octave 2
	note D_, 2
	octave 1
	note B_, 2
	octave 2
	note F#, 1
	note A_, 1
	note B_, 2
	note F#, 2
	octave 1
	note B_, 2
	octave 2
	note G#, 2
	note D_, 2
	note A#, 2
	note B_, 2
	note A_, 2
	note B_, 2
	octave 1
	note B_, 4
	octave 2
	note B_, 2
	note A_, 2
	note B_, 2
	octave 1
	note B_, 2
	octave 2
	note A_, 2
	note B_, 2
	note F#, 2
	octave 1
	note B_, 2
	octave 2
	note G#, 2
	note D_, 2
	note A#, 2
	octave 1
	note B_, 2
	octave 2
	note A_, 2
	note B_, 2
	octave 1
	note B_, 4
	octave 2
	note F#, 2
	octave 3
	note C#, 1
	octave 2
	note A_, 1
	octave 3
	note E_, 1
	octave 2
	note B_, 1
	note A#, 3
	octave 1
	note A#, 1
	octave 2
	note F_, 2
	octave 1
	note A#, 2
	octave 2
	note C#, 2
	octave 1
	note A#, 2
	octave 2
	note F_, 2
	octave 1
	note A#, 2
	note A#, 2
	octave 2
	note D_, 2
	note G#, 2
	note D#, 2
	note A_, 2
	note E_, 2
	note G#, 2
	octave 1
	note A#, 1
	note D#, 1
	note A#, 2
	octave 2
	note F_, 2
	octave 3
	note C#, 1
	octave 2
	note A_, 1
	octave 1
	note A#, 2
	octave 2
	note A#, 1
	note F_, 1
	octave 1
	note A#, 2
	octave 2
	note F_, 1
	note C_, 1
	octave 1
	note A#, 1
	note D#, 1
	note A#, 2
	octave 2
	note F_, 2
	note A#, 2
	octave 1
	note B_, 2
	octave 3
	note C#, 1
	octave 2
	note G_, 1
	note G#, 2
	note F_, 2
	octave 1
	note B_, 1
	note F#, 1
	note A#, 2
	octave 2
	note F_, 2
	octave 1
	note A#, 2
	octave 2
	note F_, 2
	note C#, 2
	octave 1
	note A#, 2
	octave 2
	note F_, 2
	octave 1
	note A#, 2
	note A#, 2
	note F#, 2
	octave 2
	note D#, 1
	note A#, 1
	octave 1
	note F#, 2
	octave 2
	note E_, 1
	note G#, 1
	octave 1
	note G_, 2
	octave 2
	note F_, 1
	note A_, 1
	octave 1
	note G#, 2
	note A#, 2
	octave 2
	note E_, 2
	octave 1
	note A_, 2
	note A#, 2
	octave 2
	note F_, 2
	octave 1
	note A#, 2
	octave 2
	note C#, 2
	octave 1
	note G_, 2
	note F#, 2
	octave 2
	note C#, 2
	octave 1
	note A#, 2
	octave 2
	note D#, 2
	octave 1
	note A_, 2
	octave 2
	note F_, 2
	note C#, 2
	note F#, 2
	octave 1
	note A#, 2
	octave 2
	note F_, 2
	note A#, 2
	note G#, 2
	octave 1
	note A#, 2
	octave 2
	note F_, 2
	note A#, 2
	note F#, 1
	octave 1
	note A#, 1
	note F#, 2
	octave 2
	note C#, 2
	note F#, 2
	note C#, 2
	octave 1
	note F#, 2
	octave 2
	note C#, 2
	note F#, 2
	note C#, 1
	octave 1
	note F#, 1
	note A#, 2
	octave 2
	note F_, 2
	note A#, 2
	note G#, 2
	octave 1
	note A#, 2
	octave 2
	note F_, 2
	note A#, 2
	note F#, 1
	octave 1
	note A#, 1
	note F#, 2
	octave 2
	note C#, 2
	note F#, 2
	note C#, 2
	octave 1
	note F#, 2
	octave 2
	note C#, 2
	note F#, 2
	note C#, 1
	octave 1
	note F#, 1
	note A#, 2
	octave 2
	note F_, 2
	note A#, 2
	note G#, 2
	octave 1
	note A#, 2
	octave 2
	note F_, 2
	note A#, 2
	note F#, 1
	octave 1
	note A#, 1
	note F#, 2
	octave 2
	note C#, 2
	note F#, 2
	note C#, 2
	octave 1
	note F#, 2
	octave 2
	note C#, 2
	note F#, 2
	note C#, 1
	octave 1
	note F#, 1
	note A#, 2
	octave 2
	note F_, 2
	note A#, 2
	note G#, 2
	octave 1
	note A#, 2
	octave 2
	note F_, 2
	note A#, 2
	note F#, 1
	octave 1
	note A#, 1
	note F#, 2
	octave 2
	note C#, 2
	note F#, 2
	note C#, 2
	octave 1
	note F#, 2
	octave 2
	note C#, 2
	note F#, 2
	note C#, 1
	octave 1
	note F#, 1
	note A#, 2
	octave 2
	note F_, 2
	note A#, 2
	note F_, 2
	octave 1
	note A#, 2
	octave 2
	note F_, 2
	note A#, 2
	note F_, 2
	octave 1
	note F#, 2
	octave 2
	note C#, 2
	note F#, 2
	octave 3
	note C#, 2
	octave 2
	note F#, 2
	note C#, 2
	note F#, 2
	octave 3
	note C#, 2
	octave 1
	note A#, 2
	octave 2
	note F_, 2
	note A#, 2
	note F_, 2
	note A#, 2
	octave 3
	note F_, 2
	octave 2
	note A#, 2
	note F_, 2
	note C#, 2
	note F#, 2
	note C#, 2
	note F#, 2
	note C#, 2
	note F#, 2
	note C#, 2
	note F#, 2
	octave 1
	note A#, 2
	octave 2
	note F_, 2
	octave 1
	note A#, 2
	octave 2
	note F_, 2
	octave 1
	note A#, 2
	octave 2
	note F_, 2
	octave 1
	note A#, 2
	octave 2
	note F_, 2
	octave 1
	note F#, 2
	octave 2
	note C#, 2
	octave 1
	note F#, 2
	octave 2
	note C#, 2
	octave 1
	note F#, 2
	octave 2
	note C#, 2
	octave 1
	note F#, 2
	octave 2
	note C#, 2
	octave 1
	note A#, 2
	octave 2
	note F_, 2
	octave 1
	note A#, 2
	octave 2
	note F_, 2
	note A#, 2
	note F_, 2
	note A#, 2
	note F_, 2
	;tempo 74
	note C#, 3
	note A_, 3
	note C#, 3
	note A_, 3
	note C_, 3
	note A_, 3
	octave 1
	note A_, 3
	octave 2
	note A_, 3
	;tempo 111
	;loop
	sound_loop 0, Music_GalarBirdBattle_branch_22d9c
