Music_KantoBirdBattle::
	channel_count 3
	channel 1, Music_KantoBirdBattle_Ch1
	channel 2, Music_KantoBirdBattle_Ch2
	channel 3, Music_KantoBirdBattle_Ch3

Music_KantoBirdBattle_Ch1::
	tempo 104
	volume 7, 7
	duty_cycle 3
	vibrato 6, 3, 4
	toggle_perfect_pitch
	note_type 12, 11, 3
	;Bar 1
	octave 4
	note D#, 1
	note D_, 1
	note C#, 1
	note C_, 1
	note C#, 1
	note C_, 1
	octave 3
	note B_, 1
	note A#, 1
	note B_, 1
	note A#, 1
	note A_, 1
	note G#, 1
	note A_, 1
	note G#, 1
	note G_, 1
	note F#, 1
;Bar 2
	note G_, 1
	note F#, 1
	note F_, 1
	note E_, 1
	note F_, 1
	note E_, 1
	note D#, 1
	note D_, 1
	note D#, 1
	note D_, 1
	note C#, 1
	note C_, 1
	note C#, 1
	note D_, 1
	note D#, 1
	note E_, 1
	note_type 12, 11, 1
;Bar 3
	note A#, 6
	note G_, 6
	note F#, 12
;Bar 4
	note E_, 14
;Bar 5
	note G_, 6
	note F#, 10
	note_type 12, 4, -7
;Bar 6
	note E_, 10
	note_type 12, 11, 1
;Bar 7
	note A#, 6
	note G_, 6
	note F#, 12
;Bar 8
	note E_, 14
;Bar 9
	note G_, 6
	note F#, 10
;Bar 10
	note E_, 10

Music_KantoBirdBattle_branch_230e0::
	note_type 12, 11, 3
;Bar 11
	note E_, 1
	note F_, 1
	note E_, 1
	note D#, 1
	note E_, 1
	note F_, 1
	note E_, 1
	note D#, 1
	note E_, 1
	note F_, 1
	note F#, 1
	note F_, 1
	note E_, 1
	note D#, 1
	note D_, 1
	note D#, 1
;Bar 12
	note E_, 1
	note F_, 1
	note F#, 1
	note F_, 1
	note E_, 1
	note F_, 1
	note F#, 1
	note F_, 1
	note E_, 1
	note F_, 1
	note F#, 1
	note G_, 1
	note G#, 1
	note G_, 1
	note F#, 1
	note F_, 1
;Bar 13
	note E_, 1
	note F_, 1
	note F#, 1
	note G_, 1
	note G#, 1
	note A_, 1
	note A#, 1
	note B_, 1
	octave 4
	note C_, 1
	octave 3
	note B_, 1
	note A#, 1
	note A_, 1
	note G#, 1
	note G_, 1
	note F#, 1
	note F_, 1
;Bar 14
	note E_, 1
	note F_, 1
	note F#, 1
	note G_, 1
	note G#, 1
	note A_, 1
	note A#, 1
	note A_, 1
	note G#, 1
	note G_, 1
	note F#, 1
	note G_, 1
	note G#, 1
	note A_, 1
	note A#, 1
	note B_, 1
;Bar 15
	octave 4
	note C_, 1
	octave 3
	note F_, 1
	note F#, 1
	note G_, 1
	note F#, 1
	note F_, 1
	note E_, 1
	note F_, 1
	note F#, 1
	note G_, 1
	note F#, 1
	note F_, 1
	note E_, 1
	note F_, 1
	note F#, 1
	note G_, 1
;Bar 16
	note F#, 1
	note F_, 1
	note E_, 1
	note F_, 1
	note F#, 1
	note G_, 1
	note F#, 1
	note F_, 1
	note E_, 1
	note F_, 1
	note F#, 1
	note G_, 1
	note G#, 1
	note A_, 1
	note G#, 1
	note G_, 1
;Bar 17
	note F#, 1
	note F_, 1
	note F#, 1
	note G_, 1
	note F#, 1
	note F_, 1
	note E_, 1
	note F_, 1
	note F#, 1
	note G_, 1
	note F#, 1
	note F_, 1
	note E_, 1
	note F_, 1
	note F#, 1
	note G_, 1
;Bar 18
	note F#, 1
	note F_, 1
	note E_, 1
	note F_, 1
	note F#, 1
	note G_, 1
	note F#, 1
	note F_, 1
	note E_, 1
	note F_, 1
	note F#, 1
	note G_, 1
	note G#, 1
	note A_, 1
	note G#, 1
	note G_, 1
;Bar 19
	note E_, 1
	note F_, 1
	note F#, 1
	note G_, 1
	note G#, 1
	note A_, 1
	note A#, 1
	note B_, 1
	octave 4
	note C_, 1
	octave 3
	note B_, 1
	note A#, 1
	note A_, 1
	note G#, 1
	note G_, 1
	note F#, 1
	note F_, 1
;Bar 20
	note E_, 1
	note F_, 1
	note F#, 1
	note G_, 1
	note G#, 1
	note A_, 1
	note A#, 1
	note B_, 1
	octave 4
	note C_, 1
	octave 3
	note B_, 1
	note A#, 1
	note A_, 1
	note G#, 1
	note G_, 1
	note F#, 1
	note F_, 1
;Bar 21
	note E_, 1
	note F_, 1
	note F#, 1
	note G_, 1
	note G#, 1
	note A_, 1
	note A#, 1
	note B_, 1
	octave 4
	note C_, 1
	octave 3
	note B_, 1
	note A#, 1
	note A_, 1
	note G#, 1
	note G_, 1
	note F#, 1
	note F_, 1
;Bar 22
	note E_, 1
	note F_, 1
	note F#, 1
	note G_, 1
	note G#, 1
	note A_, 1
	note A#, 1
	note A_, 1
	note G#, 1
	note G_, 1
	note F#, 1
	note G_, 1
	note G#, 1
	note A_, 1
	note A#, 1
	note B_, 1
	note_type 12, 11, 5
;Bar 23
	note F_, 4
	note D#, 4
	note F_, 4
	note G#, 4
;Bar 24
	note G_, 6
	note F_, 6
	note G#, 4
	note_type 12, 11, 7
;Bar 25
	octave 4
	note C_, 12
	note C#, 4
;Bar 26
	octave 3
	note A#, 16
	note_type 12, 11, 5
;Bar 27
	note F_, 4
	note D#, 4
	note F_, 4
	note G#, 4
;Bar 28
	note A#, 6
	octave 4
	note C_, 6
	note D_, 4
	note_type 12, 11, 7
;Bar 29
	note D#, 16
	note_type 12, 3, -7
;Bar 30
	note A#, 16
	note_type 12, 11, 5
;Bar 31
	octave 3
	note D#, 12
	note D#, 2
	rest 2
;Bar 32
	note F_, 2
	note D#, 2
	rest 12
;Bar 33
	note E_, 12
	note E_, 2
	rest 2
;Bar 34
	note G#, 2
	note_type 12, 10, 3
	note F#, 6
	note_type 12, 10, 7
	note E_, 8
	sound_loop 0, Music_KantoBirdBattle_branch_230e0


Music_KantoBirdBattle_Ch2::
	duty_cycle 3
	vibrato 8, 2, 5
	note_type 12, 12, 3
	;Bar 1
	octave 4
	note A#, 1
	note A_, 1
	note G#, 1
	octave 5
	note G#, 1
	octave 4
	note A#, 1
	note A_, 1
	note G#, 1
	octave 5
	note G#, 1
	octave 4
	note A#, 1
	note A_, 1
	note G#, 1
	octave 5
	note G#, 1
	octave 4
	note A#, 1
	note A_, 1
	note G#, 1
	octave 5
	note G#, 1
;Bar 2
	octave 4
	note A#, 1
	note A_, 1
	note G#, 1
	octave 5
	note G#, 1
	octave 4
	note A#, 1
	note A_, 1
	note G#, 1
	octave 5
	note G#, 1
	octave 4
	note A#, 1
	note A_, 1
	note G#, 1
	octave 5
	note G#, 1
	octave 4
	note A#, 1
	note A_, 1
	note G#, 1
	octave 5
	note G#, 1
	note_type 12, 12, 2
;Bar 3
	octave 4
	note A#, 6
	octave 3
	note A#, 6
	note A#, 12
;Bar 4
	note A#, 14
;Bar 5
	note A#, 6
	note A#, 10
	note_type 12, 9, 0
;Bar 6
	note A_, 10
	note_type 12, 12, 2
;Bar 7
	note A#, 6
	note A#, 6
	note A#, 12
;Bar 8
	note A#, 14
;Bar 9
	note A#, 6
	note A#, 10
;Bar 10
	note A#, 10

Music_KantoBirdBattle_branch_23225::
	octave 3
	note_type 12, 12, 5
;Bar 11
	note A#, 6
	note A_, 6
	note G_, 4
;Bar 12
	note A#, 6
	octave 4
	note C_, 6
	octave 3
	note A#, 4
;Bar 13
	octave 4
	note B_, 12
	note A#, 2
	rest 2
;Bar 14
	note B_, 2
	note A#, 2
	rest 4
	note_type 12, 11, 7
	octave 5
	note E_, 8
	note_type 12, 12, 5
;Bar 15
	octave 4
	note D#, 6
	note C#, 6
	octave 3
	note B_, 4
;Bar 16
	octave 4
	note E_, 6
	note D#, 6
	note C#, 4
;Bar 17
	note G#, 6
	note G_, 6
	note F_, 4
	note_type 12, 12, 7
;Bar 18
	note C#, 4
	note D#, 4
	note F_, 4
	note G#, 4
	note_type 12, 12, 0
;Bar 19
	note B_, 16
	note_type 12, 11, 0
;Bar 20
	note B_, 16
	note_type 12, 4, -6
;Bar 21
	note A#, 16
	note_type 12, 12, 7
;Bar 22
	note A#, 16
	octave 3
;Bar 23
	octave 3
	note G#, 8
	octave 4
	note C#, 8
;Bar 24
	note F_, 8
	note G#, 8
	note_type 12, 12, 0
;Bar 25
	note G_, 16
	note_type 12, 12, 7
;Bar 26
	note G_, 16
;Bar 27
	octave 3
	note G#, 8
	octave 4
	note C#, 8
;Bar 28
	note F_, 8
	note G#, 8
	note_type 12, 12, 0
;Bar 29
	note A#, 16
	note_type 12, 3, -7
;Bar 30
	octave 5
	note D#, 16
	note_type 12, 12, 5
;Bar 31
	octave 4
	note G_, 12
	note G_, 2
	rest 2
;Bar 32
	note G#, 2
	note_type 12, 12, 1
	note G_, 4
	note_type 12, 12, 5
	rest 10
;Bar 33
	note G#, 12
	note G#, 2
	rest 2
;Bar 34
	note B_, 2
	note_type 12, 10, 3
	note A#, 6
	note_type 12, 12, 7
	note G#, 8
	sound_loop 0, Music_KantoBirdBattle_branch_23225


Music_KantoBirdBattle_Ch3::
	vibrato 0, 2, 0
	note_type 12, 1, 7
;Bar 1
	octave 2
	note E_, 1
	rest 1
	note E_, 1
	note D#, 1
	note F_, 1
	rest 1
	note F_, 1
	note D#, 1
	note F#, 1
	rest 1
	note F#, 1
	note D#, 1
	note G_, 1
	rest 1
	note G_, 1
	note D#, 1
;Bar 2
	note G#, 1
	rest 1
	note G#, 1
	note D#, 1
	note A_, 1
	rest 1
	note A_, 1
	note D#, 1
	note A#, 1
	rest 1
	note A#, 1
	note D#, 1
	note B_, 2
	note A#, 2
;Bar 3
	note D#, 2
	note A#, 2
	note D#, 2
	note A#, 2
	note D#, 2
	note A#, 2
	octave 3
	note D#, 2
	octave 2
	note A#, 2
;Bar 4
	note D#, 2
	note A#, 2
	octave 3
	note D#, 2
	octave 2
	note A#, 2
	note B_, 2
	octave 3
	note C#, 2
	octave 2
	note G#, 2
	note A#, 2
;Bar 5
	note E_, 2
	note B_, 2
	note E_, 2
	octave 3
	note E_, 6
	octave 2
	note E_, 2
	note B_, 2
;Bar 6
	note E_, 2
	note B_, 2
	octave 3
	note E_, 2
	note C#, 2
	note C#, 2
	note D#, 2
	octave 2
	note B_, 2
	octave 3
	note C#, 2
;Bar 7
	octave 2
	note D#, 2
	note A#, 2
	note D#, 2
	note A#, 2
	note D#, 2
	note A#, 2
	octave 3
	note D#, 2
	octave 2
	note A#, 2
;Bar 8
	note D#, 2
	note A#, 2
	octave 3
	note D#, 2
	octave 2
	note A#, 2
	note A#, 2
	note B_, 2
	note G#, 2
	note A#, 2
;Bar 9
	note E_, 2
	note B_, 2
	note D#, 1
	note E_, 1
	note G#, 1
	note B_, 1
	octave 3
	note E_, 2
	note D#, 2
	note C#, 2
	note D#, 2
;Bar 10
	octave 2
	note E_, 2
	note B_, 2
	octave 3
	note D#, 2
	note E_, 2
	octave 2
	note E_, 1
	note G#, 1
	note B_, 1
	octave 3
	note C#, 1
	note E_, 2
	note C#, 2

Music_KantoBirdBattle_branch_232d8::
;Bar 11
	octave 2
	note D#, 2
	note A#, 2
	note D#, 2
	note A#, 2
	octave 3
	note D#, 2
	octave 2
	note A#, 2
	note G#, 1
	note G_, 1
	note F_, 1
	note E_, 1
;Bar 12
	note D#, 2
	note A#, 2
	note D#, 2
	note A#, 2
	note D#, 2
	note A#, 2
	note B_, 2
	note A#, 2
;Bar 13
	note E_, 2
	note B_, 2
	note E_, 2
	note A#, 2
	note E_, 2
	note A_, 2
	note E_, 2
	note G#, 2
;Bar 14
	note E_, 2
	note G_, 2
	note E_, 2
	note F#, 2
	octave 3
	note C#, 2
	note D#, 2
	octave 2
	note B_, 2
	octave 3
	note C#, 2
;Bar 15
	octave 2
	note D#, 4
	note A#, 2
	note D#, 3
	rest 1
	note D#, 2
	note A#, 2
	note D#, 2
;Bar 16
	note D#, 2
	note A#, 2
	rest 2
	note A#, 2
	rest 2
	note A#, 2
	note A_, 2
	note A#, 1
	rest 1
;Bar 17
	note D#, 2
	note A#, 2
	rest 2
	note A#, 2
	rest 2
	note A#, 2
	note A_, 2
	note A#, 2
;Bar 18
	note D#, 4
	octave 3
	note C#, 4
	octave 2
	note C#, 4
	note G#, 2
	note F#, 1
	note F_, 1
;Bar 19
	note E_, 4
	note B_, 2
	note E_, 3
	rest 1
	note E_, 2
	note B_, 1
	rest 1
	note C#, 2
;Bar 20
	octave 3
	note E_, 2
	octave 2
	note G#, 1
	rest 1
	note B_, 2
	octave 3
	note E_, 1
	rest 1
	octave 2
	note E_, 1
	note G#, 1
	note A#, 1
	note B_, 1
	octave 3
	note E_, 2
	note D_, 2
;Bar 21
	octave 2
	note A#, 2
	note D#, 2
	note A#, 2
	note D#, 1
	rest 1
	note D#, 2
	note A#, 1
	rest 1
	note A#, 2
	note A_, 2
;Bar 22
	note D#, 2
	note A#, 2
	note D#, 2
	note A#, 2
	octave 3
	note D_, 1
	note D#, 1
	octave 2
	note B_, 1
	octave 3
	note C#, 1
	octave 2
	note A#, 1
	note A_, 1
	note G#, 1
	note G_, 1
;Bar 23
	note C#, 1
	rest 1
	note C#, 2
	rest 2
	note C#, 2
	octave 3
	note C#, 2
	octave 2
	note C#, 3
	rest 1
	note C#, 1
	rest 1
;Bar 24
	note C#, 2
	rest 2
	note C#, 1
	rest 1
	note C#, 1
	note C#, 1
	octave 3
	note C#, 8
;Bar 25
	octave 2
	note A#, 4
	note G_, 1
	rest 1
	note A#, 1
	octave 3
	note C_, 1
	note D#, 2
	octave 2
	note A#, 2
	note G_, 2
	note A#, 2
;Bar 26
	note D#, 2
	note A#, 2
	rest 2
	note A#, 6
	rest 2
	note A#, 2
;Bar 27
	octave 3
	note C#, 2
	rest 4
	note C#, 1
	note C#, 1
	octave 2
	note G#, 8
;Bar 28
	note D#, 2
	octave 3
	note D#, 2
	octave 2
	note D#, 2
	octave 3
	note C#, 2
	octave 2
	note D#, 2
	octave 3
	note C_, 2
	octave 2
	note G_, 2
	note G#, 2
;Bar 29
	note D#, 2
	note A#, 2
	note D#, 2
	note G#, 2
	note D#, 2
	note G_, 2
	note A_, 2
	note A#, 2
;Bar 30
	octave 3
	note D#, 2
	octave 2
	note A#, 1
	rest 1
	note G_, 2
	note A#, 1
	rest 1
	octave 3
	note C#, 1
	note D#, 1
	octave 2
	note A#, 1
	note B_, 1
	note G_, 1
	note F#, 1
	note F_, 1
	note E_, 1
;Bar 31
	note D#, 5
	rest 1
	note D#, 1
	rest 3
	note D#, 4
	rest 2
;Bar 32
	octave 3
	note D_, 2
	note D#, 4
	octave 2
	note D#, 3
	rest 1
	note D#, 1
	rest 3
	note D#, 1
	rest 1
;Bar 33
	note E_, 4
	octave 3
	note E_, 2
	octave 2
	note E_, 3
	rest 1
	note E_, 2
	octave 3
	note E_, 4
;Bar 34
	note D#, 2
	note E_, 2
	rest 4
	octave 2
	note B_, 2
	octave 3
	note C#, 1
	rest 1
	octave 3
	note G#, 2
	note B_, 1
	rest 1
	sound_loop 0, Music_KantoBirdBattle_branch_232d8
