;Coverted using MIDI2ASM
;Code by TriteHexagon
;Version 5.0.1 (7-Feb-2021)
;Visit github.com/TriteHexagon/Midi2ASM-Converter for up-to-date versions.

; ============================================================================================================

Music_Placeholder:
	channel_count 4
	channel 1, Music_Placeholder_Ch1
	channel 2, Music_Placeholder_Ch2
	channel 3, Music_Placeholder_Ch3
	channel 4, Music_Placeholder_Ch4

Music_Placeholder_Ch1:
	volume 7, 7
	duty_cycle 2
	note_type 12, 10, 7
	tempo 102
;Bar 1
	octave 4
	volume_envelope 7, 7
	;note A#, 0 | WARNING: Rounded down to 0
	volume_envelope 9, 7
	;note D#, 0 | WARNING: Rounded down to 0
	octave 1
	volume_envelope 13, 7
	note E_, 1
	octave 4
	volume_envelope 7, 7
	;note A_, 0 | WARNING: Rounded down to 0
	volume_envelope 9, 7
	note D_, 1
	volume_envelope 7, 7
	;note G#, 0 | WARNING: Rounded down to 0
	volume_envelope 9, 7
	;note C#, 0 | WARNING: Rounded down to 0
	octave 1
	volume_envelope 13, 7
	note E_, 1
	octave 5
	volume_envelope 7, 7
	;note G#, 0 | WARNING: Rounded down to 0
	octave 4
	volume_envelope 9, 7
	;note C_, 0 | WARNING: Rounded down to 0
	octave 1
	volume_envelope 13, 7
	note D#, 1
	octave 4
	volume_envelope 7, 7
	;note A#, 0 | WARNING: Rounded down to 0
	volume_envelope 9, 7
	;note C#, 0 | WARNING: Rounded down to 0
	octave 1
	volume_envelope 13, 7
	note F_, 1
	octave 4
	volume_envelope 7, 7
	;note A_, 0 | WARNING: Rounded down to 0
	volume_envelope 9, 7
	note C_, 1
	volume_envelope 7, 7
	;note G#, 0 | WARNING: Rounded down to 0
	octave 3
	volume_envelope 9, 7
	;note B_, 0 | WARNING: Rounded down to 0
	octave 1
	volume_envelope 13, 7
	note F_, 1
	octave 5
	volume_envelope 7, 7
	;note G#, 0 | WARNING: Rounded down to 0
	octave 3
	volume_envelope 9, 7
	;note A#, 0 | WARNING: Rounded down to 0
	octave 1
	volume_envelope 13, 7
	note D#, 1
	octave 4
	volume_envelope 7, 7
	;note A#, 0 | WARNING: Rounded down to 0
	octave 3
	volume_envelope 9, 7
	;note B_, 0 | WARNING: Rounded down to 0
	octave 1
	volume_envelope 13, 7
	note F#, 1
	octave 4
	volume_envelope 7, 7
	;note A_, 0 | WARNING: Rounded down to 0
	octave 3
	volume_envelope 9, 7
	note A#, 1
	octave 4
	volume_envelope 7, 7
	;note G#, 0 | WARNING: Rounded down to 0
	octave 3
	volume_envelope 9, 7
	;note A_, 0 | WARNING: Rounded down to 0
	octave 1
	volume_envelope 13, 7
	note F#, 1
	octave 5
	volume_envelope 7, 7
	;note G#, 0 | WARNING: Rounded down to 0
	octave 3
	volume_envelope 9, 7
	;note G#, 0 | WARNING: Rounded down to 0
	octave 1
	volume_envelope 13, 7
	note D#, 1
	octave 4
	volume_envelope 7, 7
	;note A#, 0 | WARNING: Rounded down to 0
	octave 3
	volume_envelope 9, 7
	;note A_, 0 | WARNING: Rounded down to 0
	octave 1
	volume_envelope 13, 7
	note G_, 1
	octave 4
	volume_envelope 7, 7
	;note A_, 0 | WARNING: Rounded down to 0
	octave 3
	volume_envelope 9, 7
	note G#, 1
	octave 4
	volume_envelope 7, 7
	;note G#, 0 | WARNING: Rounded down to 0
	octave 3
	volume_envelope 9, 7
	;note G_, 0 | WARNING: Rounded down to 0
	octave 1
	volume_envelope 13, 7
	note G_, 1
	octave 5
	volume_envelope 7, 7
	;note G#, 0 | WARNING: Rounded down to 0
	octave 3
	volume_envelope 9, 7
	;note F#, 0 | WARNING: Rounded down to 0
	octave 1
	volume_envelope 13, 7
	note D#, 1
;Bar 2
	octave 4
	volume_envelope 7, 7
	;note A#, 0 | WARNING: Rounded down to 0
	octave 3
	volume_envelope 9, 7
	;note G_, 0 | WARNING: Rounded down to 0
	octave 1
	volume_envelope 13, 7
	note G#, 1
	octave 4
	volume_envelope 7, 7
	;note A_, 0 | WARNING: Rounded down to 0
	octave 3
	volume_envelope 9, 7
	note F#, 1
	octave 4
	volume_envelope 7, 7
	;note G#, 0 | WARNING: Rounded down to 0
	octave 3
	volume_envelope 9, 7
	;note F_, 0 | WARNING: Rounded down to 0
	octave 1
	volume_envelope 13, 7
	note G#, 1
	octave 5
	volume_envelope 7, 7
	;note G#, 0 | WARNING: Rounded down to 0
	octave 3
	volume_envelope 9, 7
	;note E_, 0 | WARNING: Rounded down to 0
	octave 1
	volume_envelope 13, 7
	note D#, 1
	octave 4
	volume_envelope 7, 7
	;note A#, 0 | WARNING: Rounded down to 0
	octave 3
	volume_envelope 9, 7
	;note F_, 0 | WARNING: Rounded down to 0
	octave 1
	volume_envelope 13, 7
	note A_, 1
	octave 4
	volume_envelope 7, 7
	;note A_, 0 | WARNING: Rounded down to 0
	octave 3
	volume_envelope 9, 7
	note E_, 1
	octave 4
	volume_envelope 7, 7
	;note G#, 0 | WARNING: Rounded down to 0
	octave 3
	volume_envelope 9, 7
	;note D#, 0 | WARNING: Rounded down to 0
	octave 1
	volume_envelope 13, 7
	note A_, 1
	octave 5
	volume_envelope 7, 7
	;note G#, 0 | WARNING: Rounded down to 0
	octave 3
	volume_envelope 9, 7
	;note D_, 0 | WARNING: Rounded down to 0
	octave 1
	volume_envelope 13, 7
	note D#, 1
	octave 4
	volume_envelope 7, 7
	;note A#, 0 | WARNING: Rounded down to 0
	octave 3
	volume_envelope 9, 7
	;note D#, 0 | WARNING: Rounded down to 0
	octave 1
	volume_envelope 13, 7
	note A#, 1
	octave 4
	volume_envelope 7, 7
	;note A_, 0 | WARNING: Rounded down to 0
	octave 3
	volume_envelope 9, 7
	note D_, 1
	octave 4
	volume_envelope 7, 7
	;note G#, 0 | WARNING: Rounded down to 0
	octave 3
	volume_envelope 9, 7
	;note C#, 0 | WARNING: Rounded down to 0
	octave 1
	volume_envelope 13, 7
	note A#, 1
	octave 5
	volume_envelope 7, 7
	;note G#, 0 | WARNING: Rounded down to 0
	octave 3
	volume_envelope 9, 7
	;note C_, 0 | WARNING: Rounded down to 0
	octave 1
	volume_envelope 13, 7
	note D#, 1
	octave 4
	volume_envelope 7, 7
	;note A#, 0 | WARNING: Rounded down to 0
	octave 3
	volume_envelope 9, 7
	;note C#, 0 | WARNING: Rounded down to 0
	octave 1
	volume_envelope 13, 7
	note B_, 1
	octave 4
	volume_envelope 7, 7
	;note A_, 0 | WARNING: Rounded down to 0
	octave 3
	volume_envelope 9, 7
	note D_, 1
	octave 4
	volume_envelope 7, 7
	;note G#, 0 | WARNING: Rounded down to 0
	octave 3
	volume_envelope 9, 7
	;note D#, 0 | WARNING: Rounded down to 0
	octave 1
	volume_envelope 13, 7
	note A#, 1
	octave 5
	volume_envelope 7, 7
	;note G#, 0 | WARNING: Rounded down to 0
	octave 3
	volume_envelope 9, 7
	note E_, 1
;Bar 3
	octave 4
	volume_envelope 7, 7
	;note A#, 0 | WARNING: Rounded down to 0
	octave 3
	volume_envelope 9, 7
	;note A#, 0 | WARNING: Rounded down to 0
	octave 1
	volume_envelope 15, 7
	note D#, 2
	note A#, 2
	;note D#, 0 | WARNING: Rounded down to 0
	rest 2
	octave 3
	volume_envelope 11, 7
	;note A#, 0 | WARNING: Rounded down to 0
	volume_envelope 9, 7
	;note G_, 0 | WARNING: Rounded down to 0
	octave 1
	volume_envelope 15, 7
	note A#, 2
	note D#, 2
	;note A#, 0 | WARNING: Rounded down to 0
	rest 2
	octave 3
	volume_envelope 11, 7
	;note A#, 0 | WARNING: Rounded down to 0
	volume_envelope 9, 7
	;note F#, 0 | WARNING: Rounded down to 0
	octave 2
	volume_envelope 15, 7
	note D#, 2
	octave 1
	note A#, 2
;Bar 4
	note D#, 2
	note A#, 2
	octave 2
	note D#, 2
	octave 1
	;note A#, 0 | WARNING: Rounded down to 0
	rest 2
	octave 3
	volume_envelope 11, 7
	;note A#, 0 | WARNING: Rounded down to 0
	volume_envelope 9, 7
	;note E_, 0 | WARNING: Rounded down to 0
	octave 1
	volume_envelope 15, 7
	note B_, 2
	octave 2
	note C#, 2
	octave 1
	note G#, 2
	note A#, 2
;Bar 5
	note E_, 2
	note B_, 2
	;note E_, 0 | WARNING: Rounded down to 0
	rest 2
	octave 3
	volume_envelope 11, 7
	;note A#, 0 | WARNING: Rounded down to 0
	volume_envelope 9, 7
	;note G_, 0 | WARNING: Rounded down to 0
	octave 2
	volume_envelope 15, 7
	note E_, 2
	rest 4
	octave 3
	volume_envelope 11, 7
	;note A#, 0 | WARNING: Rounded down to 0
	volume_envelope 9, 7
	;note F#, 0 | WARNING: Rounded down to 0
	octave 1
	volume_envelope 15, 7
	note E_, 2
	note B_, 2
;Bar 6
	note E_, 2
	note B_, 2
	octave 2
	;note E_, 0 | WARNING: Rounded down to 0
	rest 2
	octave 3
	volume_envelope 11, 7
	;note A_, 0 | WARNING: Rounded down to 0
	volume_envelope 9, 7
	;note E_, 0 | WARNING: Rounded down to 0
	octave 2
	volume_envelope 15, 7
	note C#, 2
	note C#, 2
	note D#, 2
	octave 1
	note B_, 2
	octave 2
	note C#, 2
;Bar 7
	octave 3
	volume_envelope 11, 7
	;note A#, 0 | WARNING: Rounded down to 0
	volume_envelope 9, 7
	;note A#, 0 | WARNING: Rounded down to 0
	octave 1
	volume_envelope 15, 7
	note D#, 2
	note A#, 2
	;note D#, 0 | WARNING: Rounded down to 0
	rest 2
	octave 3
	volume_envelope 11, 7
	;note A#, 0 | WARNING: Rounded down to 0
	volume_envelope 9, 7
	;note G_, 0 | WARNING: Rounded down to 0
	octave 1
	volume_envelope 15, 7
	note A#, 2
	note D#, 2
	;note A#, 0 | WARNING: Rounded down to 0
	rest 2
	octave 3
	volume_envelope 11, 7
	;note A#, 0 | WARNING: Rounded down to 0
	volume_envelope 9, 7
	;note F#, 0 | WARNING: Rounded down to 0
	octave 2
	volume_envelope 15, 7
	note D#, 2
	octave 1
	note A#, 2
;Bar 8
	note D#, 2 ; WARNING: Auto-Sync says: Rounded up!
	note A#, 2
	octave 2
	note D#, 2
	octave 1
	;note A#, 0 | WARNING: Rounded down to 0
	rest 2
	octave 3
	volume_envelope 11, 7
	;note A#, 0 | WARNING: Rounded down to 0
	volume_envelope 9, 7
	;note E_, 0 | WARNING: Rounded down to 0
	octave 1
	volume_envelope 15, 7
	note A#, 2
	note B_, 2
	note G#, 2
	note A#, 2
;Bar 9
	note E_, 2
	note B_, 2
	note D#, 1
	;note E_, 0 | WARNING: Rounded down to 0
	rest 1
	octave 3
	volume_envelope 11, 7
	;note A#, 0 | WARNING: Rounded down to 0
	volume_envelope 9, 7
	;note G_, 0 | WARNING: Rounded down to 0
	octave 1
	volume_envelope 15, 7
	note G#, 1
	note B_, 1
	octave 2
	note E_, 2
	;note D#, 0 | WARNING: Rounded down to 0
	rest 2
	octave 3
	volume_envelope 11, 7
	;note A#, 0 | WARNING: Rounded down to 0
	volume_envelope 9, 7
	;note F#, 0 | WARNING: Rounded down to 0
	octave 2
	volume_envelope 15, 7
	note C#, 2
	note D#, 2
;Bar 10
	octave 1
	note E_, 2
	note B_, 2
	octave 2
	;note D#, 0 | WARNING: Rounded down to 0
	rest 2
	octave 3
	volume_envelope 11, 7
	;note A#, 0 | WARNING: Rounded down to 0
	volume_envelope 9, 7
	;note E_, 0 | WARNING: Rounded down to 0
	octave 2
	volume_envelope 15, 7
	note E_, 2
	octave 1
	note E_, 1
	note G#, 1
	note B_, 1
	octave 2
	note C#, 1
	note E_, 2
	note C#, 2
;Bar 11
	octave 3
	volume_envelope 11, 7
	;note A#, 0 | WARNING: Rounded down to 0
	volume_envelope 9, 7
	;note E_, 0 | WARNING: Rounded down to 0
	octave 1
	volume_envelope 15, 7
	note D#, 1
	octave 3
	volume_envelope 9, 7
	note F_, 1
	;note E_, 0 | WARNING: Rounded down to 0
	octave 1
	volume_envelope 15, 7
	note A#, 1
	octave 3
	volume_envelope 9, 7
	note D#, 1
	;note E_, 0 | WARNING: Rounded down to 0
	octave 1
	volume_envelope 15, 7
	note D#, 1
	octave 3
	volume_envelope 9, 7
	note F_, 1
	volume_envelope 11, 7
	;note A_, 0 | WARNING: Rounded down to 0
	volume_envelope 9, 7
	;note E_, 0 | WARNING: Rounded down to 0
	octave 1
	volume_envelope 15, 7
	note A#, 1
	octave 3
	volume_envelope 9, 7
	note D#, 1
	;note E_, 0 | WARNING: Rounded down to 0
	octave 2
	volume_envelope 15, 7
	note D#, 1
	octave 3
	volume_envelope 9, 7
	note F_, 1
	;note F#, 0 | WARNING: Rounded down to 0
	octave 1
	volume_envelope 15, 7
	note A#, 1
	octave 3
	volume_envelope 9, 7
	note F_, 1
	volume_envelope 11, 7
	;note G_, 0 | WARNING: Rounded down to 0
	volume_envelope 9, 7
	;note E_, 0 | WARNING: Rounded down to 0
	octave 1
	volume_envelope 15, 7
	note G#, 1
	octave 3
	volume_envelope 9, 7
	;note D#, 0 | WARNING: Rounded down to 0
	octave 1
	volume_envelope 15, 7
	note G_, 1
	octave 3
	volume_envelope 9, 7
	;note D_, 0 | WARNING: Rounded down to 0
	octave 1
	volume_envelope 15, 7
	note F_, 1
	octave 3
	volume_envelope 9, 7
	;note D#, 0 | WARNING: Rounded down to 0
	octave 1
	volume_envelope 15, 7
	note E_, 1
;Bar 12
	octave 3
	volume_envelope 11, 7
	;note A#, 0 | WARNING: Rounded down to 0
	volume_envelope 9, 7
	;note E_, 0 | WARNING: Rounded down to 0
	octave 1
	volume_envelope 15, 7
	note D#, 1
	octave 3
	volume_envelope 9, 7
	note F_, 1
	;note F#, 0 | WARNING: Rounded down to 0
	octave 1
	volume_envelope 15, 7
	note A#, 1
	octave 3
	volume_envelope 9, 7
	note F_, 1
	;note E_, 0 | WARNING: Rounded down to 0
	octave 1
	volume_envelope 15, 7
	note D#, 1
	octave 3
	volume_envelope 9, 7
	note F_, 1
	octave 4
	volume_envelope 11, 7
	;note C_, 0 | WARNING: Rounded down to 0
	octave 3
	volume_envelope 9, 7
	;note F#, 0 | WARNING: Rounded down to 0
	octave 1
	volume_envelope 15, 7
	note A#, 1
	octave 3
	volume_envelope 9, 7
	note F_, 1
	;note E_, 0 | WARNING: Rounded down to 0
	octave 1
	volume_envelope 15, 7
	note D#, 1
	octave 3
	volume_envelope 9, 7
	note F_, 1
	;note F#, 0 | WARNING: Rounded down to 0
	octave 1
	volume_envelope 15, 7
	note A#, 1
	octave 3
	volume_envelope 9, 7
	note G_, 1
	volume_envelope 11, 7
	;note A#, 0 | WARNING: Rounded down to 0
	volume_envelope 9, 7
	;note G#, 0 | WARNING: Rounded down to 0
	octave 1
	volume_envelope 15, 7
	note B_, 1
	octave 3
	volume_envelope 9, 7
	note G_, 1
	;note F#, 0 | WARNING: Rounded down to 0
	octave 1
	volume_envelope 15, 7
	note A#, 1
	octave 3
	volume_envelope 9, 7
	note F_, 1
;Bar 13
	octave 4
	volume_envelope 11, 7
	;note B_, 0 | WARNING: Rounded down to 0
	octave 3
	volume_envelope 9, 7
	;note E_, 0 | WARNING: Rounded down to 0
	octave 1
	volume_envelope 15, 7
	note E_, 1
	octave 3
	volume_envelope 9, 7
	note F_, 1
	;note F#, 0 | WARNING: Rounded down to 0
	octave 1
	volume_envelope 15, 7
	note B_, 1
	octave 3
	volume_envelope 9, 7
	note G_, 1
	;note G#, 0 | WARNING: Rounded down to 0
	octave 1
	volume_envelope 15, 7
	note E_, 1
	octave 3
	volume_envelope 9, 7
	note A_, 1
	;note A#, 0 | WARNING: Rounded down to 0
	octave 1
	volume_envelope 15, 7
	note A#, 1
	octave 3
	volume_envelope 9, 7
	note B_, 1
	octave 4
	;note C_, 0 | WARNING: Rounded down to 0
	octave 1
	volume_envelope 15, 7
	note E_, 1
	octave 3
	volume_envelope 9, 7
	note B_, 1
	;note A#, 0 | WARNING: Rounded down to 0
	octave 1
	volume_envelope 15, 7
	note A_, 1
	octave 3
	volume_envelope 9, 7
	note A_, 1
	octave 4
	volume_envelope 11, 7
	;note A#, 0 | WARNING: Rounded down to 0
	octave 3
	volume_envelope 9, 7
	;note G#, 0 | WARNING: Rounded down to 0
	octave 1
	volume_envelope 15, 7
	note E_, 1
	octave 3
	volume_envelope 9, 7
	note G_, 1
	;note F#, 0 | WARNING: Rounded down to 0
	octave 1
	volume_envelope 15, 7
	note G#, 1
	octave 3
	volume_envelope 9, 7
	;note F_, 0 | WARNING: Rounded down to 0
	rest 1
;Bar 14
	octave 4
	volume_envelope 11, 7
	;note B_, 0 | WARNING: Rounded down to 0
	octave 3
	volume_envelope 9, 7
	;note E_, 0 | WARNING: Rounded down to 0
	octave 1
	volume_envelope 15, 7
	note E_, 1
	octave 3
	volume_envelope 9, 7
	note F_, 1
	octave 4
	volume_envelope 11, 7
	;note A#, 0 | WARNING: Rounded down to 0
	octave 3
	volume_envelope 9, 7
	;note F#, 0 | WARNING: Rounded down to 0
	octave 1
	volume_envelope 15, 7
	note G_, 1
	octave 3
	volume_envelope 9, 7
	note G_, 1
	;note G#, 0 | WARNING: Rounded down to 0
	octave 1
	volume_envelope 15, 7
	note E_, 1
	octave 3
	volume_envelope 9, 7
	note A_, 1
	;note A#, 0 | WARNING: Rounded down to 0
	octave 1
	volume_envelope 15, 7
	note F#, 1
	octave 3
	volume_envelope 9, 7
	;note A_, 0 | WARNING: Rounded down to 0
	rest 1
	octave 5
	volume_envelope 11, 7
	;note E_, 0 | WARNING: Rounded down to 0
	octave 3
	volume_envelope 9, 7
	;note G#, 0 | WARNING: Rounded down to 0
	octave 2
	volume_envelope 15, 7
	note C#, 1
	octave 3
	volume_envelope 9, 7
	note G_, 1
	;note F#, 0 | WARNING: Rounded down to 0
	octave 2
	volume_envelope 15, 7
	note D#, 1
	octave 3
	volume_envelope 9, 7
	note G_, 1
	;note G#, 0 | WARNING: Rounded down to 0
	octave 1
	volume_envelope 15, 7
	note B_, 1
	octave 3
	volume_envelope 9, 7
	note A_, 1
	;note A#, 0 | WARNING: Rounded down to 0
	octave 2
	volume_envelope 15, 7
	note C#, 1
	octave 3
	volume_envelope 9, 7
	note B_, 1
;Bar 15
	octave 4
	volume_envelope 11, 7
	;note D#, 0 | WARNING: Rounded down to 0
	volume_envelope 9, 7
	;note C_, 0 | WARNING: Rounded down to 0
	octave 1
	volume_envelope 15, 7
	note D#, 1
	octave 3
	volume_envelope 9, 7
	note F_, 1
	note F#, 1
	note G_, 1
	;note F#, 0 | WARNING: Rounded down to 0
	octave 1
	volume_envelope 15, 7
	note A#, 1
	octave 3
	volume_envelope 9, 7
	note F_, 1
	octave 4
	volume_envelope 11, 7
	;note C#, 0 | WARNING: Rounded down to 0
	octave 3
	volume_envelope 9, 7
	;note E_, 0 | WARNING: Rounded down to 0
	octave 1
	volume_envelope 15, 7
	note D#, 1
	octave 3
	volume_envelope 9, 7
	note F_, 1
	note F#, 1
	note G_, 1
	;note F#, 0 | WARNING: Rounded down to 0
	octave 1
	volume_envelope 15, 7
	note D#, 1
	octave 3
	volume_envelope 9, 7
	note F_, 1
	volume_envelope 11, 7
	;note B_, 0 | WARNING: Rounded down to 0
	volume_envelope 9, 7
	;note E_, 0 | WARNING: Rounded down to 0
	octave 1
	volume_envelope 15, 7
	note A#, 1
	octave 3
	volume_envelope 9, 7
	note F_, 1
	;note F#, 0 | WARNING: Rounded down to 0
	octave 1
	volume_envelope 15, 7
	note D#, 1
	octave 3
	volume_envelope 9, 7
	note G_, 1
;Bar 16
	octave 4
	volume_envelope 11, 7
	;note E_, 0 | WARNING: Rounded down to 0
	octave 3
	volume_envelope 9, 7
	;note F#, 0 | WARNING: Rounded down to 0
	octave 1
	volume_envelope 15, 7
	note D#, 1
	octave 3
	volume_envelope 9, 7
	note F_, 1
	;note E_, 0 | WARNING: Rounded down to 0
	octave 1
	volume_envelope 15, 7
	note A#, 1
	octave 3
	volume_envelope 9, 7
	note F_, 1
	note F#, 1
	note G_, 1
	octave 4
	volume_envelope 11, 7
	;note D#, 0 | WARNING: Rounded down to 0
	octave 3
	volume_envelope 9, 7
	;note F#, 0 | WARNING: Rounded down to 0
	octave 1
	volume_envelope 15, 7
	note A#, 1
	octave 3
	volume_envelope 9, 7
	note F_, 1
	note E_, 1
	note F_, 1
	;note F#, 0 | WARNING: Rounded down to 0
	octave 1
	volume_envelope 15, 7
	note A#, 1
	octave 3
	volume_envelope 9, 7
	note G_, 1
	octave 4
	volume_envelope 11, 7
	;note C#, 0 | WARNING: Rounded down to 0
	octave 3
	volume_envelope 9, 7
	;note G#, 0 | WARNING: Rounded down to 0
	octave 1
	volume_envelope 15, 7
	note A_, 1
	octave 3
	volume_envelope 9, 7
	note A_, 1
	;note G#, 0 | WARNING: Rounded down to 0
	octave 1
	volume_envelope 15, 7
	note A#, 1
	octave 3
	volume_envelope 9, 7
	note G_, 1
;Bar 17
	octave 4
	volume_envelope 11, 7
	;note G#, 0 | WARNING: Rounded down to 0
	octave 3
	volume_envelope 9, 7
	;note F#, 0 | WARNING: Rounded down to 0
	octave 1
	volume_envelope 15, 7
	note D#, 1
	octave 3
	volume_envelope 9, 7
	note F_, 1
	;note F#, 0 | WARNING: Rounded down to 0
	octave 1
	volume_envelope 15, 7
	note A#, 1
	octave 3
	volume_envelope 9, 7
	note G_, 1
	note F#, 1
	note F_, 1
	octave 4
	volume_envelope 11, 7
	;note G_, 0 | WARNING: Rounded down to 0
	octave 3
	volume_envelope 9, 7
	;note E_, 0 | WARNING: Rounded down to 0
	octave 1
	volume_envelope 15, 7
	note A#, 1
	octave 3
	volume_envelope 9, 7
	note F_, 1
	note F#, 1
	note G_, 1
	;note F#, 0 | WARNING: Rounded down to 0
	octave 1
	volume_envelope 15, 7
	note A#, 1
	octave 3
	volume_envelope 9, 7
	note F_, 1
	octave 4
	volume_envelope 11, 7
	;note F_, 0 | WARNING: Rounded down to 0
	octave 3
	volume_envelope 9, 7
	;note E_, 0 | WARNING: Rounded down to 0
	octave 1
	volume_envelope 15, 7
	note A_, 1
	octave 3
	volume_envelope 9, 7
	note F_, 1
	;note F#, 0 | WARNING: Rounded down to 0
	octave 1
	volume_envelope 15, 7
	note A#, 1
	octave 3
	volume_envelope 9, 7
	note G_, 1
;Bar 18
	octave 4
	volume_envelope 11, 7
	;note C#, 0 | WARNING: Rounded down to 0
	octave 3
	volume_envelope 9, 7
	;note F#, 0 | WARNING: Rounded down to 0
	octave 1
	volume_envelope 14, 7
	note D#, 1
	octave 3
	volume_envelope 9, 7
	note F_, 1
	note E_, 1
	note F_, 1
	octave 4
	volume_envelope 11, 7
	;note D#, 0 | WARNING: Rounded down to 0
	octave 3
	volume_envelope 9, 7
	;note F#, 0 | WARNING: Rounded down to 0
	octave 2
	volume_envelope 14, 7
	note C#, 1
	octave 3
	volume_envelope 9, 7
	note G_, 1
	note F#, 1
	note F_, 1
	octave 4
	volume_envelope 11, 7
	;note F_, 0 | WARNING: Rounded down to 0
	octave 3
	volume_envelope 9, 7
	;note E_, 0 | WARNING: Rounded down to 0
	octave 1
	volume_envelope 14, 7
	note C#, 1
	octave 3
	volume_envelope 9, 7
	note F_, 1
	note F#, 1
	note G_, 1
	octave 4
	volume_envelope 11, 7
	;note G#, 0 | WARNING: Rounded down to 0
	octave 3
	volume_envelope 9, 7
	;note G#, 0 | WARNING: Rounded down to 0
	octave 1
	volume_envelope 14, 7
	note G#, 1
	octave 3
	volume_envelope 9, 7
	note A_, 1
	note G#, 1
	;note G_, 0 | WARNING: Rounded down to 0
	octave 1
	volume_envelope 14, 7
	note F#, 1
;Bar 19
	;note F_, 0 | WARNING: Rounded down to 0
	octave 4
	volume_envelope 13, 7
	;note B_, 0 | WARNING: Rounded down to 0
	octave 3
	volume_envelope 9, 7
	;note E_, 0 | WARNING: Rounded down to 0
	octave 1
	volume_envelope 15, 7
	note E_, 1
	octave 3
	volume_envelope 9, 7
	note F_, 1
	note F#, 1
	note G_, 1
	;note G#, 0 | WARNING: Rounded down to 0
	octave 1
	volume_envelope 15, 7
	note B_, 1
	octave 3
	volume_envelope 9, 7
	note A_, 1
	;note A#, 0 | WARNING: Rounded down to 0
	octave 1
	volume_envelope 15, 7
	note E_, 1
	octave 3
	volume_envelope 9, 7
	note B_, 1
	octave 4
	note C_, 1
	octave 3
	note B_, 1
	;note A#, 0 | WARNING: Rounded down to 0
	octave 1
	volume_envelope 15, 7
	note E_, 1
	octave 3
	volume_envelope 9, 7
	note A_, 1
	;note G#, 0 | WARNING: Rounded down to 0
	octave 1
	volume_envelope 15, 7
	note B_, 1
	octave 3
	volume_envelope 9, 7
	note G_, 1
	;note F#, 0 | WARNING: Rounded down to 0
	octave 1
	volume_envelope 15, 7
	note C#, 1
	octave 3
	volume_envelope 9, 7
	note F_, 1
;Bar 20
	;note E_, 0 | WARNING: Rounded down to 0
	octave 2
	volume_envelope 15, 7
	note E_, 1
	octave 3
	volume_envelope 9, 7
	note F_, 1
	;note F#, 0 | WARNING: Rounded down to 0
	octave 1
	volume_envelope 15, 7
	note G#, 1
	octave 3
	volume_envelope 9, 7
	note G_, 1
	;note G#, 0 | WARNING: Rounded down to 0
	octave 1
	volume_envelope 15, 7
	note B_, 1
	octave 3
	volume_envelope 9, 7
	note A_, 1
	;note A#, 0 | WARNING: Rounded down to 0
	octave 2
	volume_envelope 15, 7
	note E_, 1
	octave 3
	volume_envelope 9, 7
	note B_, 1
	octave 4
	;note C_, 0 | WARNING: Rounded down to 0
	octave 1
	volume_envelope 15, 7
	note E_, 1
	octave 3
	volume_envelope 9, 7
	;note B_, 0 | WARNING: Rounded down to 0
	octave 1
	volume_envelope 15, 7
	note G#, 1
	octave 3
	volume_envelope 9, 7
	;note A#, 0 | WARNING: Rounded down to 0
	octave 1
	volume_envelope 15, 7
	note A#, 1
	octave 3
	volume_envelope 9, 7
	;note A_, 0 | WARNING: Rounded down to 0
	octave 1
	volume_envelope 15, 7
	note B_, 1
	octave 3
	volume_envelope 9, 7
	;note G#, 0 | WARNING: Rounded down to 0
	octave 2
	volume_envelope 15, 7
	note E_, 1
	octave 3
	volume_envelope 9, 7
	note G_, 1
	;note F#, 0 | WARNING: Rounded down to 0
	octave 2
	volume_envelope 15, 7
	note D_, 1
	octave 3
	volume_envelope 9, 7
	note F_, 1
;Bar 21
	octave 4
	volume_envelope 13, 7
	;note A#, 0 | WARNING: Rounded down to 0
	octave 3
	volume_envelope 9, 7
	;note E_, 0 | WARNING: Rounded down to 0
	octave 1
	volume_envelope 15, 7
	note A#, 1
	octave 3
	volume_envelope 9, 7
	note F_, 1
	;note F#, 0 | WARNING: Rounded down to 0
	octave 1
	volume_envelope 15, 7
	note D#, 1
	octave 3
	volume_envelope 9, 7
	note G_, 1
	;note G#, 0 | WARNING: Rounded down to 0
	octave 1
	volume_envelope 15, 7
	note A#, 1
	octave 3
	volume_envelope 9, 7
	note A_, 1
	;note A#, 0 | WARNING: Rounded down to 0
	octave 1
	volume_envelope 15, 7
	note D#, 1
	octave 3
	volume_envelope 9, 7
	note B_, 1
	octave 4
	;note C_, 0 | WARNING: Rounded down to 0
	octave 1
	volume_envelope 15, 7
	note D#, 1
	octave 3
	volume_envelope 9, 7
	note B_, 1
	;note A#, 0 | WARNING: Rounded down to 0
	octave 1
	volume_envelope 15, 7
	note A#, 1
	octave 3
	volume_envelope 9, 7
	note A_, 1
	;note G#, 0 | WARNING: Rounded down to 0
	octave 1
	volume_envelope 15, 7
	note A#, 1
	octave 3
	volume_envelope 9, 7
	note G_, 1
	;note F#, 0 | WARNING: Rounded down to 0
	octave 1
	volume_envelope 15, 7
	note A_, 1
	octave 3
	volume_envelope 9, 7
	note F_, 1
;Bar 22
	;note E_, 0 | WARNING: Rounded down to 0
	octave 1
	volume_envelope 15, 7
	note D#, 1
	octave 3
	volume_envelope 9, 7
	note F_, 1
	;note F#, 0 | WARNING: Rounded down to 0
	octave 1
	volume_envelope 15, 7
	note A#, 1
	octave 3
	volume_envelope 9, 7
	note G_, 1
	;note G#, 0 | WARNING: Rounded down to 0
	octave 1
	volume_envelope 15, 7
	note D#, 1
	octave 3
	volume_envelope 9, 7
	note A_, 1
	;note A#, 0 | WARNING: Rounded down to 0
	octave 1
	volume_envelope 15, 7
	note A#, 1
	octave 3
	volume_envelope 9, 7
	note A_, 1
	;note G#, 0 | WARNING: Rounded down to 0
	octave 2
	volume_envelope 15, 7
	note D_, 1
	octave 3
	volume_envelope 9, 7
	;note G_, 0 | WARNING: Rounded down to 0
	octave 2
	volume_envelope 15, 7
	note D#, 1
	octave 3
	volume_envelope 9, 7
	;note F#, 0 | WARNING: Rounded down to 0
	octave 1
	volume_envelope 15, 7
	note B_, 1
	octave 3
	volume_envelope 9, 7
	;note G_, 0 | WARNING: Rounded down to 0
	octave 2
	volume_envelope 15, 7
	note C#, 1
	octave 3
	volume_envelope 9, 7
	;note G#, 0 | WARNING: Rounded down to 0
	octave 1
	volume_envelope 15, 7
	note A#, 1
	octave 3
	volume_envelope 9, 7
	;note A_, 0 | WARNING: Rounded down to 0
	octave 1
	volume_envelope 15, 7
	note A_, 1
	octave 3
	volume_envelope 9, 7
	;note A#, 0 | WARNING: Rounded down to 0
	octave 1
	volume_envelope 15, 7
	note G#, 1
	octave 3
	volume_envelope 9, 7
	;note B_, 0 | WARNING: Rounded down to 0
	octave 1
	volume_envelope 15, 7
	note G_, 1
;Bar 23
	octave 3
	volume_envelope 11, 7
	;note G#, 0 | WARNING: Rounded down to 0
	volume_envelope 9, 7
	;note F_, 0 | WARNING: Rounded down to 0
	octave 1
	volume_envelope 15, 7
	note C#, 1
	rest 1
	note C#, 2
	octave 3
	volume_envelope 9, 7
	;note D#, 0 | WARNING: Rounded down to 0
	rest 2
	octave 1
	volume_envelope 15, 7
	note C#, 2
	octave 4
	volume_envelope 11, 7
	;note C#, 0 | WARNING: Rounded down to 0
	octave 3
	volume_envelope 9, 7
	;note F_, 0 | WARNING: Rounded down to 0
	octave 2
	volume_envelope 15, 7
	note C#, 2
	octave 1
	note C#, 2
	octave 3
	volume_envelope 9, 7
	note G#, 1
	rest 1
	octave 1
	volume_envelope 15, 7
	note C#, 2
;Bar 24
	octave 4
	volume_envelope 11, 7
	;note F_, 0 | WARNING: Rounded down to 0
	octave 3
	volume_envelope 9, 7
	;note G_, 0 | WARNING: Rounded down to 0
	octave 1
	volume_envelope 15, 7
	note C#, 2
	rest 2
	note C#, 2
	octave 3
	volume_envelope 9, 7
	;note F_, 0 | WARNING: Rounded down to 0
	octave 1
	volume_envelope 15, 7
	note C#, 1
	note C#, 1
	octave 4
	volume_envelope 11, 7
	;note G#, 0 | WARNING: Rounded down to 0
	octave 2
	volume_envelope 15, 7
	note C#, 4
	octave 3
	volume_envelope 9, 7
	note G#, 4
;Bar 25
	octave 4
	volume_envelope 11, 7
	;note G_, 0 | WARNING: Rounded down to 0
	volume_envelope 9, 7
	;note C_, 0 | WARNING: Rounded down to 0
	octave 1
	volume_envelope 15, 7
	note A#, 4
	note G_, 1
	rest 1
	note A#, 1
	octave 2
	note C_, 1
	note D#, 2
	octave 1
	note A#, 2
	octave 4
	volume_envelope 9, 7
	;note C#, 0 | WARNING: Rounded down to 0
	octave 1
	volume_envelope 15, 7
	note G_, 2
	note A#, 2
;Bar 26
	octave 4
	volume_envelope 11, 7
	;note G_, 0 | WARNING: Rounded down to 0
	octave 3
	volume_envelope 9, 7
	;note A#, 0 | WARNING: Rounded down to 0
	octave 1
	volume_envelope 15, 7
	note D#, 2
	note A#, 2
	rest 2
	note A#, 6
	rest 2
	note A#, 2
;Bar 27
	octave 3
	volume_envelope 11, 7
	;note G#, 0 | WARNING: Rounded down to 0
	volume_envelope 9, 7
	;note F_, 0 | WARNING: Rounded down to 0
	octave 2
	volume_envelope 15, 7
	note C#, 4
	octave 3
	volume_envelope 9, 7
	;note D#, 0 | WARNING: Rounded down to 0
	rest 2
	octave 2
	volume_envelope 15, 7
	note C#, 1
	note C#, 1
	octave 4
	volume_envelope 11, 7
	;note C#, 0 | WARNING: Rounded down to 0
	octave 3
	volume_envelope 9, 7
	;note F_, 0 | WARNING: Rounded down to 0
	octave 1
	volume_envelope 15, 7
	note G#, 4
	octave 3
	volume_envelope 9, 7
	note G#, 4
;Bar 28
	octave 4
	volume_envelope 11, 7
	;note F_, 0 | WARNING: Rounded down to 0
	octave 3
	volume_envelope 9, 7
	;note A#, 0 | WARNING: Rounded down to 0
	octave 1
	volume_envelope 15, 7
	note D#, 2
	octave 2
	note D#, 2
	octave 1
	note D#, 2
	octave 4
	volume_envelope 9, 7
	;note C_, 0 | WARNING: Rounded down to 0
	octave 2
	volume_envelope 15, 7
	note C#, 2
	octave 4
	volume_envelope 11, 7
	;note G#, 0 | WARNING: Rounded down to 0
	octave 1
	volume_envelope 15, 7
	note D#, 2
	octave 2
	note C_, 2
	octave 4
	volume_envelope 9, 7
	;note D_, 0 | WARNING: Rounded down to 0
	octave 1
	volume_envelope 15, 7
	note G_, 2
	note G#, 2
;Bar 29
	octave 4
	volume_envelope 11, 7
	;note A#, 0 | WARNING: Rounded down to 0
	volume_envelope 9, 7
	;note D#, 0 | WARNING: Rounded down to 0
	octave 1
	volume_envelope 15, 7
	note D#, 2
	note A#, 2
	note D#, 2
	note G#, 2
	note D#, 2
	note G_, 2
	note A_, 2
	note A#, 2
;Bar 30
	octave 5
	volume_envelope 11, 7
	;note D#, 0 | WARNING: Rounded down to 0
	octave 4
	volume_envelope 9, 7
	;note A#, 0 | WARNING: Rounded down to 0
	octave 2
	volume_envelope 15, 7
	note D#, 2
	octave 1
	note A#, 1
	rest 1
	note G_, 2
	note A#, 1
	rest 1
	octave 2
	note C#, 1
	note D#, 1
	octave 1
	note A#, 1
	note B_, 1
	note G_, 1
	note F#, 1
	note F_, 1
	note E_, 1
;Bar 31
	octave 4
	volume_envelope 11, 7
	;note G_, 0 | WARNING: Rounded down to 0
	octave 3
	volume_envelope 9, 7
	;note D#, 0 | WARNING: Rounded down to 0
	octave 1
	volume_envelope 15, 7
	note D#, 5
	rest 1
	note D#, 1
	rest 3
	note D#, 2
	octave 4
	volume_envelope 11, 7
	;note G_, 0 | WARNING: Rounded down to 0
	octave 3
	volume_envelope 9, 7
	note D#, 2
	rest 2
;Bar 32
	octave 4
	volume_envelope 11, 7
	;note G#, 0 | WARNING: Rounded down to 0
	octave 3
	volume_envelope 9, 7
	;note F_, 0 | WARNING: Rounded down to 0
	octave 2
	volume_envelope 15, 7
	note D_, 2
	octave 4
	volume_envelope 11, 7
	;note G_, 0 | WARNING: Rounded down to 0
	octave 3
	volume_envelope 9, 7
	;note D#, 0 | WARNING: Rounded down to 0
	octave 2
	volume_envelope 15, 7
	note D#, 4
	octave 1
	note D#, 3
	rest 1
	note D#, 1
	rest 3
	note D#, 1
	rest 1
;Bar 33
	octave 4
	volume_envelope 11, 7
	;note G#, 0 | WARNING: Rounded down to 0
	octave 3
	volume_envelope 9, 7
	;note E_, 0 | WARNING: Rounded down to 0
	octave 1
	volume_envelope 15, 7
	note E_, 4
	octave 2
	note E_, 2
	octave 1
	note E_, 3
	rest 1
	note E_, 2
	octave 4
	volume_envelope 11, 7
	;note G#, 0 | WARNING: Rounded down to 0
	octave 3
	volume_envelope 9, 7
	;note E_, 0 | WARNING: Rounded down to 0
	octave 2
	volume_envelope 15, 7
	note E_, 2
	rest 2
;Bar 34
	octave 4
	volume_envelope 11, 7
	;note B_, 0 | WARNING: Rounded down to 0
	octave 3
	volume_envelope 9, 7
	;note G#, 0 | WARNING: Rounded down to 0
	octave 2
	volume_envelope 15, 7
	note D#, 2
	octave 4
	volume_envelope 11, 7
	;note A#, 0 | WARNING: Rounded down to 0
	octave 3
	volume_envelope 9, 7
	;note F#, 0 | WARNING: Rounded down to 0
	octave 2
	volume_envelope 15, 7
	note E_, 2
	rest 4
	octave 4
	volume_envelope 11, 7
	;note G#, 0 | WARNING: Rounded down to 0
	octave 3
	volume_envelope 9, 7
	;note E_, 0 | WARNING: Rounded down to 0
	octave 1
	volume_envelope 15, 7
	note B_, 2
	octave 2
	note C#, 1
	rest 1
	octave 1
	note G#, 2
	note B_, 2
	sound_ret

; ============================================================================================================

